<svg width="101" height="91" viewBox="0 0 101 91" fill="none" xmlns="http://www.w3.org/2000/svg">
<path fill-rule="evenodd" clip-rule="evenodd" d="M30.133 61.6727C30.046 62.016 30 62.366 30 62.723C30 77.4197 41.939 89.3334 56.6667 89.3334C71.3943 89.3334 83.3333 77.4194 83.3333 62.723C83.3333 52.864 77.9607 44.2574 69.9773 39.6597C66.06 37.4034 56.6667 34.7204 46.8893 24.738C46.4923 24.333 46.713 29.3747 45.4647 29.8224C45.2397 29.903 33.8117 18.929 32.9037 20.0854C32.562 20.5204 47.3743 39.4964 46.889 45.654C46.8703 45.8917 46.8277 46.126 46.7637 46.358C53.806 49.371 63.3333 58.5804 63.3333 64.0534C63.3333 70.6667 57.9607 76.028 51.3333 76.028C44.706 76.028 39.3333 70.6667 39.3333 64.0534C39.3333 62.176 34.0987 62.3364 30.133 61.6727Z" fill="#ED5481" stroke="black" stroke-width="3" stroke-miterlimit="10" stroke-linecap="round" stroke-linejoin="round"/>
<path d="M52.6667 40C54.1394 40 55.3333 38.8061 55.3333 37.3334C55.3333 35.8606 54.1394 34.6667 52.6667 34.6667C51.1939 34.6667 50 35.8606 50 37.3334C50 38.8061 51.1939 40 52.6667 40Z" fill="black"/>
<path d="M30 62.6667L31.3333 53.3334" stroke="black" stroke-width="3" stroke-miterlimit="10" stroke-linecap="round" stroke-linejoin="round"/>
<path d="M46 42.3247L29.3763 40.0001L16.6666 45.3334" stroke="black" stroke-width="3" stroke-miterlimit="10" stroke-linecap="round" stroke-linejoin="round"/>
<path d="M43.3333 37.3334L20.0583 32.0001L2 35.3711" stroke="black" stroke-width="3" stroke-miterlimit="10" stroke-linecap="round" stroke-linejoin="round"/>
<path d="M38 29.3334L29.0837 29.3304L15.3334 21.3334" stroke="black" stroke-width="3" stroke-miterlimit="10" stroke-linecap="round" stroke-linejoin="round"/>
<path d="M63.3334 50.6667L71.3334 42.6667" stroke="black" stroke-width="3" stroke-miterlimit="10" stroke-linecap="round" stroke-linejoin="round"/>
<path d="M68.6666 69.3334L80.6666 72" stroke="black" stroke-width="3" stroke-miterlimit="10" stroke-linecap="round" stroke-linejoin="round"/>
<path d="M56.6666 80.0001L58 88.0001" stroke="black" stroke-width="3" stroke-miterlimit="10" stroke-linecap="round" stroke-linejoin="round"/>
<mask id="mask0_26_141" style="mask-type:luminance" maskUnits="userSpaceOnUse" x="44" y="0" width="57" height="57">
<path d="M100.259 25.1728L69.173 0L44.0002 31.0858L75.086 56.2587L100.259 25.1728Z" fill="white"/>
</mask>
<g mask="url(#mask0_26_141)">
<path d="M79.3866 24.9921L80.4823 25.8793C72.5978 24.0581 65.1308 35.4759 65.1308 35.4759L58.8678 30.4042L62.5168 25.898C66.4514 21.0393 73.5801 20.29 78.4388 24.2245L79.3866 24.9921Z" fill="#97C2F7"/>
<path d="M84.1984 43.4554L80.5494 47.9616L74.9377 43.4174C74.9377 43.4174 84.5534 33.7397 81.1328 26.4061L82.3354 27.38L82.5249 27.5334C87.3836 31.4679 88.1329 38.5967 84.1984 43.4554Z" fill="#97C2F7"/>
<path d="M81.1328 26.4061C84.5535 33.7396 74.9377 43.4173 74.9377 43.4173L65.1307 35.4759C65.1307 35.4759 72.5977 24.0581 80.4822 25.8793L81.1328 26.4061Z" fill="#FFF3E6"/>
<path d="M83.098 26.4381L82.3354 27.3799L81.1329 26.4061L80.4823 25.8793L79.3867 24.9921L80.1493 24.0503C80.8087 23.236 82.0033 23.1111 82.8176 23.7706C83.2248 24.1003 83.4595 24.564 83.5108 25.0463C83.5609 25.5286 83.4277 26.031 83.098 26.4381Z" fill="#97C2F7"/>
<path d="M50.366 24.7749L58.2539 31.1624L64.5144 36.232C64.5149 36.2324 64.5153 36.2329 64.5159 36.2333C64.5163 36.2337 64.5169 36.234 64.5174 36.2344L74.3233 44.1751C74.3238 44.1755 74.3242 44.1759 74.3247 44.1763C74.3252 44.1768 74.3258 44.1771 74.3263 44.1775L79.9355 48.7198C80.3542 49.0589 80.9686 48.9943 81.3077 48.5755L84.9567 44.0694C89.069 38.9911 88.4598 31.6017 83.6935 27.2531L83.8562 27.0522C84.3384 26.4568 84.5603 25.7088 84.4811 24.9429C84.3998 24.1802 84.0271 23.4946 83.4316 23.0124C82.2003 22.0153 80.3878 22.2055 79.391 23.4364L79.2425 23.6199L79.0529 23.4664C73.7837 19.1995 66.0256 20.0149 61.7587 25.2841L58.7237 29.032L51.594 23.2585C51.1753 22.9194 50.561 22.9839 50.2219 23.4027C49.8828 23.8214 49.9473 24.4358 50.366 24.7749ZM83.4402 42.8414L80.4052 46.5893L76.365 43.3175C78.2927 41.1652 83.2502 35.0141 82.8193 29.1213C86.4207 32.8217 86.7685 38.7313 83.4402 42.8414ZM80.9075 24.6643C81.2271 24.2696 81.8085 24.2088 82.2037 24.5288C82.3948 24.6836 82.5146 24.9041 82.5404 25.1467C82.5659 25.3923 82.4946 25.6329 82.3398 25.824L82.1912 26.0075L80.7589 24.8477L80.9075 24.6643ZM63.2752 26.512C66.8649 22.079 73.3919 21.393 77.825 24.9828L78.7728 25.7503L80.3343 27.0148C82.7239 32.601 76.795 39.8997 74.8429 42.085L66.4528 35.2909C67.4149 33.974 69.6711 31.1209 72.5315 29.049C72.968 28.733 73.0655 28.1231 72.7494 27.6866C72.4336 27.2503 71.8233 27.1526 71.3869 27.4687C68.347 29.6703 65.9965 32.6091 64.9329 34.06L60.2402 30.2599L63.2752 26.512Z" fill="#2E1C10"/>
<path d="M73.9406 27.3624C74.3592 27.7014 74.9739 27.6367 75.3128 27.2182C75.6518 26.7997 75.5872 26.1849 75.1687 25.846C74.7502 25.5071 74.1354 25.5718 73.7965 25.9903C73.4575 26.4088 73.5221 27.0235 73.9406 27.3624Z" fill="#2E1C10"/>
</g>
<mask id="mask1_26_141" style="mask-type:luminance" maskUnits="userSpaceOnUse" x="35" y="49" width="40" height="40">
<path d="M75 49H35V89H75V49Z" fill="white"/>
</mask>
<g mask="url(#mask1_26_141)">
<path d="M57.0329 55.7353L59.6684 83.9806L54.8621 88.1045L50.3315 83.9806L52.9671 55.7353L52.9707 55.7273L55 56.6291L57.0293 55.7273L57.0329 55.7353Z" fill="#8697CB"/>
<path d="M59.9533 49.8956V54.4278L57.0293 55.7273L55 56.6291V52.0968L59.9533 49.8956Z" fill="#556080"/>
<path d="M55.0001 52.0968V56.6291L52.9708 55.7273L50.0469 54.4278V49.8956L55.0001 52.0968Z" fill="#556080"/>
<path d="M60.8487 54.4278V49.8955C60.8487 49.5924 60.6953 49.3098 60.4411 49.1446C60.187 48.9794 59.8667 48.954 59.5894 49.0771L54.9999 51.1167L50.4105 49.0771C50.1333 48.9539 49.813 48.9796 49.5588 49.1446C49.3047 49.3098 49.1512 49.5923 49.1512 49.8955V54.4278C49.1512 54.7818 49.3596 55.1025 49.683 55.2462L52.0165 56.2832L49.4398 83.8974C49.4137 84.1774 49.5207 84.4535 49.7287 84.6428L54.2593 88.7667C54.4299 88.9221 54.6459 89 54.8622 89C55.0696 89 55.2774 88.9282 55.4452 88.7841L60.2516 84.6602C60.472 84.471 60.587 84.1866 60.5601 83.8973L57.9835 56.2833L60.317 55.2464C60.6403 55.1024 60.8487 54.7818 60.8487 54.4278ZM50.9423 51.2735L54.1045 52.6788V55.2511L50.9423 53.8458V51.2735ZM58.7338 83.6025L55.7577 86.1561V83.0895C55.7577 82.5949 55.3567 82.1939 54.8622 82.1939C54.3677 82.1939 53.9666 82.5949 53.9666 83.0895V86.0783L51.2648 83.6189L53.744 57.0507L54.6366 57.4474C54.6706 57.4625 54.7052 57.4747 54.7398 57.4854C54.7481 57.4879 54.7565 57.4897 54.7649 57.492C54.7956 57.5004 54.8266 57.5072 54.8577 57.5122C54.8664 57.5136 54.8749 57.5151 54.8836 57.5163C54.9223 57.5214 54.9611 57.5249 54.9997 57.5249C55.0028 57.5249 55.0059 57.5243 55.009 57.5242C55.0435 57.5238 55.0781 57.5211 55.1126 57.5168C55.1244 57.5153 55.136 57.5132 55.1479 57.5112C55.1759 57.5065 55.2034 57.5004 55.231 57.4931C55.241 57.4904 55.2512 57.4881 55.2612 57.485C55.2959 57.4745 55.3303 57.4623 55.3639 57.4473L55.3705 57.4444L56.2565 57.0507L58.7338 83.6025ZM59.0577 53.8458L55.8956 55.2511V52.6787L59.0577 51.2734V53.8458Z" fill="#2E1C10"/>
<path d="M54.862 79.4035C54.3677 79.4035 53.9664 79.8038 53.9664 80.2991C53.9664 80.7934 54.3676 81.1946 54.862 81.1946C55.3572 81.1946 55.7575 80.7934 55.7575 80.2991C55.7575 79.8038 55.3572 79.4035 54.862 79.4035Z" fill="#2E1C10"/>
</g>
</svg>
