<svg width="101" height="91" viewBox="0 0 101 91" fill="none" xmlns="http://www.w3.org/2000/svg">
<path fill-rule="evenodd" clip-rule="evenodd" d="M30.1334 61.6727C30.0464 62.016 30.0004 62.366 30.0004 62.723C30.0004 77.4197 41.9394 89.3334 56.667 89.3334C71.3947 89.3334 83.3337 77.4194 83.3337 62.723C83.3337 52.864 77.961 44.2574 69.9777 39.6597C66.0604 37.4034 56.667 34.7204 46.8897 24.738C46.4927 24.333 46.7134 29.3747 45.465 29.8224C45.24 29.903 33.812 18.929 32.904 20.0854C32.5624 20.5204 47.3747 39.4964 46.8894 45.654C46.8707 45.8917 46.828 46.126 46.764 46.358C53.8064 49.371 63.3337 58.5804 63.3337 64.0534C63.3337 70.6667 57.961 76.028 51.3337 76.028C44.7064 76.028 39.3337 70.6667 39.3337 64.0534C39.3337 62.176 34.099 62.3364 30.1334 61.6727Z" fill="#ED5481" stroke="black" stroke-width="3" stroke-miterlimit="10" stroke-linecap="round" stroke-linejoin="round"/>
<path d="M52.667 40C54.1398 40 55.3337 38.8061 55.3337 37.3334C55.3337 35.8606 54.1398 34.6667 52.667 34.6667C51.1943 34.6667 50.0004 35.8606 50.0004 37.3334C50.0004 38.8061 51.1943 40 52.667 40Z" fill="black"/>
<path d="M30.0004 62.6667L31.3337 53.3334" stroke="black" stroke-width="3" stroke-miterlimit="10" stroke-linecap="round" stroke-linejoin="round"/>
<path d="M46.0003 42.3247L29.3767 40.0001L16.667 45.3334" stroke="black" stroke-width="3" stroke-miterlimit="10" stroke-linecap="round" stroke-linejoin="round"/>
<path d="M43.3337 37.3334L20.0587 32.0001L2.00037 35.3711" stroke="black" stroke-width="3" stroke-miterlimit="10" stroke-linecap="round" stroke-linejoin="round"/>
<path d="M38.0004 29.3334L29.0841 29.3304L15.3337 21.3334" stroke="black" stroke-width="3" stroke-miterlimit="10" stroke-linecap="round" stroke-linejoin="round"/>
<path d="M63.3337 50.6667L71.3337 42.6667" stroke="black" stroke-width="3" stroke-miterlimit="10" stroke-linecap="round" stroke-linejoin="round"/>
<path d="M68.667 69.3334L80.667 72" stroke="black" stroke-width="3" stroke-miterlimit="10" stroke-linecap="round" stroke-linejoin="round"/>
<path d="M56.667 80.0001L58.0003 88.0001" stroke="black" stroke-width="3" stroke-miterlimit="10" stroke-linecap="round" stroke-linejoin="round"/>
</svg>
