<svg width="80" height="88" viewBox="0 0 80 88" fill="none" xmlns="http://www.w3.org/2000/svg">
<path d="M65.6 55.4707L61.3334 37.3373" stroke="black" stroke-width="1.5" stroke-miterlimit="10" stroke-linecap="round" stroke-linejoin="round"/>
<path d="M55.4959 54.3575C55.5105 54.7754 55.5093 55.0887 55.5054 55.2793C55.4379 55.3567 55.3395 55.4676 55.2113 55.6076C54.9401 55.9037 54.5355 56.3295 54.0059 56.8437C52.9463 57.8725 51.3886 59.2527 49.4011 60.6532C45.4224 63.4569 39.747 66.3247 32.9112 66.6486C26.0006 66.976 22.7828 65.801 21.0541 64.4925C20.1879 63.8368 19.666 63.1266 19.2271 62.4781C19.1799 62.4083 19.1327 62.3379 19.0856 62.2675C18.9186 62.018 18.752 61.7691 18.5835 61.5517C18.3634 61.2678 18.1116 60.9983 17.7914 60.8015C14.6005 58.8398 12.2607 55.4896 10.9067 52.0315C9.54692 48.5587 9.22198 45.0844 9.9317 42.9035C10.6785 40.6092 11.713 38.3893 13.4404 36.296C15.1679 34.2027 17.6059 32.2148 21.1855 30.4105C26.6428 27.6597 31.2544 28.1552 34.8087 28.5371C35.8928 28.6536 36.8786 28.7595 37.76 28.7595C39.4759 28.7595 40.9097 29.0358 42.7003 30.3426C44.5276 31.6762 46.7329 34.0884 49.9274 38.4192C53.086 42.7014 54.4672 47.1706 55.0645 50.47C55.363 52.1188 55.465 53.4718 55.4959 54.3575Z" fill="#F87EA1" stroke="black" stroke-width="1.5"/>
<path d="M56 54.404C56 54.404 52.8861 20.2115 23.7544 29.2504C-5.37731 38.2893 15.648 67.204 28.568 67.204C41.488 67.204 53.52 50.1323 38.148 41.7528C24.6093 34.3725 16.6925 53.9904 25.964 57.0427C35.2355 60.095 38.148 52.2022 35.2677 48.8784" stroke="black" stroke-width="1.5" stroke-miterlimit="10" stroke-linecap="round" stroke-linejoin="round"/>
<path d="M64.5333 56.5374L73.0667 35.204" stroke="black" stroke-width="1.5" stroke-miterlimit="10" stroke-linecap="round" stroke-linejoin="round"/>
<path fill-rule="evenodd" clip-rule="evenodd" d="M22.3147 65.4088L14.4 70.404H58.6003C63.0552 70.404 66.6667 66.8133 66.6667 62.404V54.404H55.272L22.3147 65.4088Z" fill="#DDDDDD" stroke="black" stroke-width="1.5" stroke-miterlimit="10" stroke-linecap="round" stroke-linejoin="round"/>
<path d="M29.6655 12.9948H31.0754C23.8019 16.5412 25.1844 30.1137 25.1844 30.1137H17.1254V24.3153C17.1254 18.0633 22.1939 12.9948 28.4459 12.9948H29.6655Z" fill="#97C2F7"/>
<path d="M45.0244 24.3153V30.1137H37.8035C37.8035 30.1137 39.186 16.5413 31.9125 12.9948H33.4599H33.7038C39.9558 12.9948 45.0244 18.0633 45.0244 24.3153Z" fill="#97C2F7"/>
<path d="M31.9125 12.9948C39.186 16.5412 37.8035 30.1137 37.8035 30.1137H25.1844C25.1844 30.1137 23.8019 16.5413 31.0754 12.9948H31.9125Z" fill="#FFF3E6"/>
<path d="M33.4598 11.783V12.9948H31.9125H31.0754H29.6655V11.783C29.6655 10.7351 30.5153 9.88635 31.5632 9.88635C32.0871 9.88635 32.5613 10.099 32.9047 10.4415C33.2472 10.7849 33.4598 11.2591 33.4598 11.783Z" fill="#97C2F7"/>
<path d="M6.97562 31.0893H17.1254H25.1811L25.1831 31.0894L25.185 31.0893H37.8028L37.8047 31.0894L37.8067 31.0893H45.0244C45.5632 31.0893 46 30.6525 46 30.1137V24.3153C46 17.7809 40.8763 12.4215 34.4355 12.0416V11.783C34.4355 11.0169 34.1373 10.2959 33.5937 9.75055C33.0505 9.20899 32.3295 8.91071 31.5632 8.91071C29.9788 8.91071 28.6899 10.1992 28.6899 11.783V12.0191H28.446C21.6659 12.0191 16.1498 17.5352 16.1498 24.3154V29.138H6.97562C6.4368 29.138 6 29.5748 6 30.1136C6 30.6524 6.4368 31.0893 6.97562 31.0893ZM44.0487 24.3153V29.138H38.8498C38.9934 26.2521 38.9752 18.352 34.9318 14.0436C40.0593 14.6529 44.0487 19.0266 44.0487 24.3153ZM30.6412 11.783C30.6412 11.2752 31.0548 10.862 31.5632 10.862C31.8091 10.862 32.041 10.958 32.2138 11.1302C32.3881 11.3051 32.4841 11.5369 32.4841 11.7829V12.019H30.6411L30.6412 11.783ZM18.1011 24.3153C18.1011 18.6111 22.7418 13.9704 28.446 13.9704H29.6656H31.6749C37.0475 16.8078 37.0331 26.2112 36.8912 29.138H26.0953C26.0143 27.5091 25.9721 23.872 26.8912 20.4617C27.0316 19.9414 26.7234 19.4061 26.2031 19.2658C25.6831 19.1255 25.1473 19.4336 25.0072 19.9539C24.0302 23.578 24.053 27.341 24.1395 29.138H18.1011V24.3153Z" fill="#2E1C10"/>
<path d="M26.9249 18.2642C27.4635 18.2642 27.9005 17.8271 27.9005 17.2886C27.9005 16.75 27.4634 16.313 26.9249 16.313C26.3864 16.313 25.9493 16.7501 25.9493 17.2886C25.9493 17.8272 26.3863 18.2642 26.9249 18.2642Z" fill="#2E1C10"/>
</svg>
