<svg width="80" height="80" viewBox="0 0 80 80" fill="none" xmlns="http://www.w3.org/2000/svg">
<mask id="mask0_26_227" style="mask-type:luminance" maskUnits="userSpaceOnUse" x="0" y="0" width="80" height="80">
<path d="M80 0H0V80H80V0Z" fill="white"/>
</mask>
<g mask="url(#mask0_26_227)">
<path d="M65.6 47.4707L61.3334 29.3373" stroke="black" stroke-width="1.5" stroke-miterlimit="10" stroke-linecap="round" stroke-linejoin="round"/>
<path d="M55.4959 46.3575C55.5105 46.7754 55.5093 47.0887 55.5054 47.2793C55.4379 47.3567 55.3395 47.4676 55.2113 47.6076C54.9401 47.9037 54.5355 48.3295 54.0059 48.8437C52.9463 49.8725 51.3886 51.2527 49.4011 52.6532C45.4224 55.4569 39.747 58.3247 32.9112 58.6486C26.0006 58.976 22.7828 57.801 21.0541 56.4925C20.1879 55.8368 19.666 55.1266 19.2271 54.4781C19.1799 54.4083 19.1327 54.3379 19.0856 54.2675C18.9186 54.018 18.752 53.7691 18.5835 53.5517C18.3634 53.2678 18.1116 52.9983 17.7914 52.8015C14.6005 50.8398 12.2607 47.4896 10.9067 44.0315C9.54692 40.5587 9.22198 37.0844 9.9317 34.9035C10.6785 32.6092 11.713 30.3893 13.4404 28.296C15.1679 26.2027 17.6059 24.2148 21.1855 22.4105C26.6428 19.6597 31.2544 20.1552 34.8087 20.5371C35.8928 20.6536 36.8786 20.7595 37.76 20.7595C39.4759 20.7595 40.9097 21.0358 42.7003 22.3426C44.5276 23.6762 46.7329 26.0884 49.9274 30.4192C53.086 34.7014 54.4672 39.1706 55.0645 42.47C55.363 44.1188 55.465 45.4718 55.4959 46.3575Z" fill="#F87EA1" stroke="black" stroke-width="1.5"/>
<path d="M56 46.404C56 46.404 52.8861 12.2115 23.7544 21.2504C-5.37731 30.2893 15.648 59.204 28.568 59.204C41.488 59.204 53.52 42.1323 38.148 33.7528C24.6093 26.3725 16.6925 45.9904 25.964 49.0427C35.2355 52.095 38.148 44.2022 35.2677 40.8784" stroke="black" stroke-width="1.5" stroke-miterlimit="10" stroke-linecap="round" stroke-linejoin="round"/>
<path d="M64.5333 48.5374L73.0667 27.204" stroke="black" stroke-width="1.5" stroke-miterlimit="10" stroke-linecap="round" stroke-linejoin="round"/>
<path fill-rule="evenodd" clip-rule="evenodd" d="M22.3147 57.4088L14.4 62.404H58.6003C63.0552 62.404 66.6667 58.8133 66.6667 54.404V46.404H55.272L22.3147 57.4088Z" fill="#DDDDDD" stroke="black" stroke-width="1.5" stroke-miterlimit="10" stroke-linecap="round" stroke-linejoin="round"/>
<mask id="mask1_26_227" style="mask-type:luminance" maskUnits="userSpaceOnUse" x="11" y="38" width="53" height="53">
<path d="M63.0715 75.0874L48.0873 38L10.9999 52.9843L25.9842 90.0716L63.0715 75.0874Z" fill="white"/>
</mask>
<g mask="url(#mask1_26_227)">
<path d="M50.0961 60.9516L24.8948 73.9761L19.2707 71.0646L21.3972 65.3191L48.573 57.1819L48.5818 57.1822L48.5059 59.4016L50.1022 60.9453L50.0961 60.9516Z" fill="#8697CB"/>
<path d="M56.6047 61.4717L52.4024 63.1695L50.1022 60.9452L48.5059 59.4015L52.7082 57.7037L56.6047 61.4717Z" fill="#556080"/>
<path d="M52.7082 57.7037L48.5059 59.4015L48.5819 57.1822L48.6914 53.9844L52.8936 52.2866L52.7082 57.7037Z" fill="#556080"/>
<path d="M52.738 63.9998L56.9402 62.3019C57.2213 62.1884 57.4258 61.9403 57.4838 61.6427C57.5417 61.3453 57.4453 61.0388 57.2272 60.8278L53.6169 57.3366L53.7888 52.3173C53.7991 52.0141 53.6554 51.7267 53.4072 51.5529C53.1588 51.3791 52.8394 51.3427 52.5583 51.4563L48.3559 53.1541C48.0278 53.2867 47.8085 53.6 47.7964 53.9538L47.7091 56.5057L21.1404 64.4612C20.871 64.5418 20.6551 64.7445 20.5574 65.0083L18.431 70.7538C18.3509 70.9702 18.3595 71.1997 18.4405 71.4002C18.5182 71.5925 18.6626 71.7582 18.8592 71.8599L24.4833 74.7714C24.7413 74.9049 25.0481 74.905 25.3062 74.7717L49.9442 62.0383L51.7798 63.8134C52.0344 64.0593 52.4097 64.1324 52.738 63.9998ZM51.9516 53.6331L51.8332 57.0914L49.4481 58.0551L49.5666 54.5968L51.9516 53.6331ZM24.8953 72.9679L21.4128 71.1652L24.2562 70.0164C24.7148 69.8311 24.9363 69.3091 24.7511 68.8506C24.5658 68.392 24.0438 68.1704 23.5852 68.3557L20.814 69.4753L22.0822 66.049L47.6445 58.395L47.6111 59.3712C47.6098 59.4084 47.6115 59.445 47.6146 59.4811C47.6154 59.4897 47.6168 59.4982 47.6178 59.5068C47.6215 59.5385 47.6268 59.5698 47.6338 59.6005C47.6358 59.6091 47.6376 59.6175 47.6398 59.626C47.6496 59.6638 47.6608 59.7011 47.6753 59.7369C47.6765 59.7398 47.6782 59.7424 47.6794 59.7452C47.6927 59.7771 47.7082 59.8082 47.7251 59.8385C47.7309 59.8489 47.7372 59.8589 47.7435 59.8692C47.7583 59.8933 47.7743 59.9166 47.7914 59.9394C47.7976 59.9477 47.8036 59.9563 47.8102 59.9644C47.833 59.9927 47.8572 60.02 47.8837 60.0455L47.8888 60.0505L48.5858 60.7245L24.8953 72.9679ZM52.6066 62.1212L50.1191 59.7157L52.5042 58.7521L54.9917 61.1575L52.6066 62.1212Z" fill="#2E1C10"/>
<path d="M27.3382 67.8051C27.1531 67.3468 26.6316 67.1248 26.1724 67.3103C25.7141 67.4954 25.4924 68.0177 25.6775 68.4761C25.8631 68.9353 26.385 69.1561 26.8434 68.9709C27.3025 68.7854 27.5237 68.2643 27.3382 67.8051Z" fill="#2E1C10"/>
</g>
</g>
</svg>
