<svg width="80" height="80" viewBox="0 0 80 80" fill="none" xmlns="http://www.w3.org/2000/svg">
<path d="M65.6 47.4707L61.3334 29.3373" stroke="black" stroke-width="1.5" stroke-miterlimit="10" stroke-linecap="round" stroke-linejoin="round"/>
<path d="M55.2461 46.3662C55.2584 46.718 55.2593 46.9942 55.2569 47.1834C55.1965 47.2518 55.1197 47.3376 55.027 47.4388C54.7588 47.7315 54.3575 48.1539 53.8317 48.6644C52.7796 49.6859 51.2319 51.0572 49.2571 52.4489C45.302 55.236 39.6719 58.078 32.8994 58.3988C26.0145 58.725 22.8663 57.5507 21.205 56.2931C20.3715 55.6622 19.868 54.9789 19.4341 54.338C19.3887 54.2709 19.3428 54.2023 19.2965 54.133C19.1288 53.8825 18.9555 53.6235 18.7811 53.3986C18.5524 53.1035 18.279 52.8078 17.9224 52.5886C14.7905 50.6631 12.4799 47.3639 11.1395 43.9404C9.79034 40.4947 9.48483 37.0845 10.1694 34.9809C10.9095 32.7071 11.9312 30.5176 13.6332 28.4552C15.3354 26.3925 17.7444 24.425 21.2981 22.6337C26.6818 19.92 31.1921 20.4034 34.7413 20.7837C35.8406 20.9015 36.8477 21.0095 37.76 21.0095C39.4345 21.0095 40.8136 21.2751 42.553 22.5445C44.3473 23.8541 46.5337 26.2395 49.7263 30.5676C52.8562 34.811 54.226 39.2414 54.8185 42.5145C55.1145 44.1498 55.2155 45.4906 55.2461 46.3662Z" fill="#F87EA1" stroke="black" stroke-width="1.5"/>
<path d="M56 46.404C56 46.404 52.8861 12.2115 23.7544 21.2504C-5.37732 30.2893 15.648 59.204 28.568 59.204C41.488 59.204 53.52 42.1323 38.148 33.7528C24.6093 26.3725 16.6925 45.9904 25.964 49.0427C35.2355 52.095 38.148 44.2022 35.2677 40.8784" stroke="black" stroke-width="1.5" stroke-miterlimit="10" stroke-linecap="round" stroke-linejoin="round"/>
<path d="M64.5333 48.5374L73.0667 27.204" stroke="black" stroke-width="1.5" stroke-miterlimit="10" stroke-linecap="round" stroke-linejoin="round"/>
<path fill-rule="evenodd" clip-rule="evenodd" d="M22.3147 57.4088L14.4 62.404H58.6003C63.0552 62.404 66.6667 58.8133 66.6667 54.404V46.404H55.272L22.3147 57.4088Z" fill="#DDDDDD" stroke="black" stroke-width="1.5" stroke-miterlimit="10" stroke-linecap="round" stroke-linejoin="round"/>
</svg>
