<svg width="66" height="73" viewBox="0 0 66 73" fill="none" xmlns="http://www.w3.org/2000/svg">
<path d="M57.6 29.4707L53.3334 11.3373" stroke="#762222" stroke-width="1.5" stroke-miterlimit="10" stroke-linecap="round" stroke-linejoin="round"/>
<path d="M47.4959 28.3575C47.5105 28.7754 47.5093 29.0887 47.5054 29.2793C47.4379 29.3567 47.3395 29.4676 47.2113 29.6076C46.9401 29.9037 46.5355 30.3295 46.0059 30.8437C44.9463 31.8725 43.3886 33.2527 41.4011 34.6532C37.4224 37.4569 31.747 40.3247 24.9112 40.6486C18.0006 40.976 14.7828 39.801 13.0541 38.4925C12.1879 37.8368 11.666 37.1266 11.2271 36.4781C11.1799 36.4083 11.1327 36.3379 11.0856 36.2675C10.9186 36.018 10.752 35.7691 10.5835 35.5517C10.3634 35.2678 10.1116 34.9983 9.79142 34.8015C6.60052 32.8398 4.26072 29.4896 2.90672 26.0315C1.54692 22.5587 1.22198 19.0844 1.9317 16.9035C2.67852 14.6092 3.71302 12.3893 5.44042 10.296C7.16792 8.20269 9.60592 6.21479 13.1855 4.41049C18.6428 1.65969 23.2544 2.15519 26.8087 2.53709C27.8928 2.65359 28.8786 2.75949 29.76 2.75949C31.4759 2.75949 32.9097 3.03579 34.7003 4.34259C36.5276 5.67619 38.7329 8.0884 41.9274 12.4192C45.086 16.7014 46.4672 21.1706 47.0645 24.47C47.363 26.1188 47.465 27.4718 47.4959 28.3575Z" fill="#F87EA1" stroke="#762222" stroke-width="1.5"/>
<path d="M48 28.404C48 28.404 44.8861 -5.78849 15.7544 3.25041C-13.3773 12.2893 7.64801 41.204 20.568 41.204C33.488 41.204 45.52 24.1323 30.148 15.7528C16.6093 8.37251 8.69251 27.9904 17.964 31.0427C27.2355 34.095 30.148 26.2022 27.2677 22.8784" stroke="#762222" stroke-width="1.5" stroke-miterlimit="10" stroke-linecap="round" stroke-linejoin="round"/>
<path d="M56.5333 30.5374L65.0667 9.20398" stroke="#762222" stroke-width="1.5" stroke-miterlimit="10" stroke-linecap="round" stroke-linejoin="round"/>
<path fill-rule="evenodd" clip-rule="evenodd" d="M14.3147 39.4088L6.40002 44.404H50.6003C55.0552 44.404 58.6667 40.8133 58.6667 36.404V28.404H47.272L14.3147 39.4088Z" fill="#DDDDDD" stroke="#762222" stroke-width="1.5" stroke-miterlimit="10" stroke-linecap="round" stroke-linejoin="round"/>
<mask id="mask0_26_227" style="mask-type:luminance" maskUnits="userSpaceOnUse" x="3" y="20" width="53" height="53">
<path d="M55.0715 57.0874L40.0873 20L2.99993 34.9843L17.9842 72.0716L55.0715 57.0874Z" fill="white"/>
</mask>
<g mask="url(#mask0_26_227)">
<path d="M42.0961 42.9516L16.8948 55.9761L11.2707 53.0646L13.3972 47.3191L40.573 39.1819L40.5818 39.1822L40.5059 41.4016L42.1022 42.9453L42.0961 42.9516Z" fill="#8697CB"/>
<path d="M48.6047 43.4717L44.4024 45.1695L42.1022 42.9452L40.5059 41.4015L44.7082 39.7037L48.6047 43.4717Z" fill="#556080"/>
<path d="M44.7082 39.7037L40.5059 41.4015L40.5819 39.1822L40.6914 35.9844L44.8936 34.2866L44.7082 39.7037Z" fill="#556080"/>
<path d="M44.738 45.9998L48.9402 44.3019C49.2213 44.1884 49.4258 43.9403 49.4838 43.6427C49.5417 43.3453 49.4453 43.0388 49.2272 42.8278L45.6169 39.3366L45.7888 34.3173C45.7991 34.0141 45.6554 33.7267 45.4072 33.5529C45.1588 33.3791 44.8394 33.3427 44.5583 33.4563L40.3559 35.1541C40.0278 35.2867 39.8085 35.6 39.7964 35.9538L39.7091 38.5057L13.1404 46.4612C12.871 46.5418 12.6551 46.7445 12.5574 47.0083L10.431 52.7538C10.3509 52.9702 10.3595 53.1997 10.4405 53.4002C10.5182 53.5925 10.6626 53.7582 10.8592 53.8599L16.4833 56.7714C16.7413 56.9049 17.0481 56.905 17.3062 56.7717L41.9442 44.0383L43.7798 45.8134C44.0344 46.0593 44.4097 46.1324 44.738 45.9998ZM43.9516 35.6331L43.8332 39.0914L41.4481 40.0551L41.5666 36.5968L43.9516 35.6331ZM16.8953 54.9679L13.4128 53.1652L16.2562 52.0164C16.7148 51.8311 16.9363 51.3091 16.7511 50.8506C16.5658 50.392 16.0438 50.1704 15.5852 50.3557L12.814 51.4753L14.0822 48.049L39.6445 40.395L39.6111 41.3712C39.6098 41.4084 39.6115 41.445 39.6146 41.4811C39.6154 41.4897 39.6168 41.4982 39.6178 41.5068C39.6215 41.5385 39.6268 41.5698 39.6338 41.6005C39.6358 41.6091 39.6376 41.6175 39.6398 41.626C39.6496 41.6638 39.6608 41.7011 39.6753 41.7369C39.6765 41.7398 39.6782 41.7424 39.6794 41.7452C39.6927 41.7771 39.7082 41.8082 39.7251 41.8385C39.7309 41.8489 39.7372 41.8589 39.7435 41.8692C39.7583 41.8933 39.7743 41.9166 39.7914 41.9394C39.7976 41.9477 39.8036 41.9563 39.8102 41.9644C39.833 41.9927 39.8572 42.02 39.8837 42.0455L39.8888 42.0505L40.5858 42.7245L16.8953 54.9679ZM44.6066 44.1212L42.1191 41.7157L44.5042 40.7521L46.9917 43.1575L44.6066 44.1212Z" fill="#501A1A"/>
<path d="M19.3382 49.8051C19.1531 49.3468 18.6316 49.1248 18.1724 49.3103C17.7141 49.4954 17.4924 50.0177 17.6775 50.4761C17.8631 50.9353 18.385 51.1561 18.8434 50.9709C19.3025 50.7854 19.5237 50.2643 19.3382 49.8051Z" fill="#501A1A"/>
</g>
</svg>
